<?xml version="1.0" standalone="no"?>
<!DOCTYPE svg PUBLIC "-//W3C//DTD SVG 20010904//EN"
 "http://www.w3.org/TR/2001/REC-SVG-20010904/DTD/svg10.dtd">
<svg version="1.0" xmlns="http://www.w3.org/2000/svg"
 width="400.000000pt" height="400.000000pt" viewBox="0 0 400.000000 400.000000"
 preserveAspectRatio="xMidYMid meet">
<metadata>
Created by potrace 1.14, written by Peter Selinger 2001-2017
</metadata>
<g transform="translate(0.000000,400.000000) scale(0.100000,-0.100000)"
fill="#000000" stroke="none">
<path d="M939 3656 c-16 -35 -4 -84 34 -138 72 -103 176 -242 250 -336 26 -33
47 -65 47 -69 0 -5 -15 -27 -33 -49 -19 -21 -53 -68 -78 -104 -104 -155 -218
-288 -271 -316 -37 -19 -39 -18 -22 14 18 35 18 58 -3 92 -26 45 -70 64 -136
58 -46 -4 -64 -11 -102 -42 -61 -50 -87 -104 -88 -180 -1 -77 19 -117 77 -151
56 -33 103 -41 159 -27 51 13 139 53 186 84 21 14 32 17 26 8 -59 -101 -162
-206 -286 -293 -52 -36 -104 -73 -116 -81 -12 -9 -36 -41 -53 -71 -30 -53 -32
-60 -27 -133 3 -42 14 -108 25 -147 17 -59 28 -77 69 -114 74 -67 120 -84 244
-89 61 -2 160 3 237 12 173 21 236 20 378 -5 139 -25 339 -30 429 -10 48 10
137 47 217 89 4 2 -2 -23 -13 -55 -13 -36 -23 -95 -26 -156 l-6 -98 -51 6
c-28 4 -59 11 -68 16 -25 14 -58 11 -58 -5 0 -28 88 -112 149 -141 33 -17 60
-33 60 -37 2 -24 -200 -27 -266 -4 -53 19 -136 78 -153 111 -7 14 -22 25 -32
25 -14 0 -18 -8 -18 -38 0 -40 26 -125 54 -179 l15 -31 -60 -11 c-145 -25
-289 -125 -356 -245 -26 -47 -28 -60 -28 -151 0 -111 9 -136 73 -207 47 -52
102 -78 170 -78 59 0 95 15 133 57 23 24 59 83 59 96 0 2 -26 4 -57 4 -134 0
-166 65 -81 164 52 61 162 84 318 68 172 -17 524 -23 608 -9 87 14 213 57 278
95 118 69 241 210 313 359 88 181 121 321 127 545 3 100 9 154 20 180 43 98
25 294 -42 461 -93 232 -295 433 -555 554 -56 26 -75 42 -117 97 -35 46 -55
85 -67 130 -10 35 -37 105 -61 156 -62 131 -129 174 -188 121 -24 -23 -67
-134 -81 -211 -4 -22 -15 -42 -27 -48 -11 -6 -21 -9 -21 -7 -1 2 -15 30 -31
63 -111 236 -234 290 -262 116 -4 -23 -9 -43 -13 -45 -3 -2 -43 1 -88 7 -74
11 -89 17 -155 64 -335 240 -528 329 -559 259z m116 -32 c11 -8 63 -39 115
-68 l95 -54 -1 -48 c0 -32 -10 -71 -30 -113 l-30 -64 -32 43 c-18 24 -32 38
-32 32 0 -9 -8 -8 -25 4 -18 12 -23 22 -19 39 3 14 -3 32 -18 51 -41 51 -97
142 -104 168 -6 24 -4 26 28 26 19 0 43 -7 53 -16z m299 -179 c10 -8 24 -12
30 -8 6 3 8 3 4 -2 -8 -8 51 -57 110 -90 65 -38 62 -111 -9 -241 -21 -39 -39
-80 -39 -92 0 -12 -3 -22 -7 -22 -9 0 -103 98 -103 108 0 4 -18 29 -39 55 -22
26 -42 60 -46 75 -6 28 9 82 39 137 9 17 19 45 22 63 7 36 11 38 38 17z m540
-69 c35 -43 123 -212 115 -221 -3 -2 -32 18 -67 45 -34 27 -67 50 -73 52 -5 2
-13 25 -17 52 -5 34 -13 52 -27 60 -11 6 -22 12 -24 13 -2 1 2 16 9 32 15 38
31 31 84 -33z m379 25 c46 -51 58 -75 97 -196 28 -86 33 -119 37 -230 5 -126
4 -134 -31 -265 -21 -74 -50 -175 -66 -225 -39 -120 -60 -247 -60 -364 0 -184
-30 -275 -122 -376 -55 -61 -132 -103 -238 -130 -91 -24 -274 -22 -414 4 -132
25 -237 26 -422 5 -356 -42 -481 26 -511 276 -13 109 27 170 172 265 142 94
240 196 325 339 55 93 78 111 166 134 38 11 117 42 175 71 93 46 109 51 127
40 18 -11 33 -6 124 39 84 41 136 59 278 92 96 23 183 48 192 57 17 15 22 14
71 -12 28 -16 79 -46 112 -67 l60 -38 8 38 c13 63 -10 251 -44 354 -39 120
-71 176 -104 180 -24 3 -25 4 -10 26 23 31 37 28 78 -17z m-20 -162 c15 -46
35 -115 43 -152 14 -67 19 -187 8 -187 -3 0 -24 13 -47 28 -23 15 -54 33 -69
40 -35 15 -36 35 -8 222 11 74 20 137 20 138 0 2 5 2 12 0 7 -3 25 -42 41 -89z
m-528 31 c17 -7 15 -9 -12 -9 -17 -1 -35 4 -38 9 -7 12 22 12 50 0z m-10 -85
c44 -35 88 -72 98 -83 17 -19 17 -20 -20 -37 -53 -25 -120 -80 -178 -147 -28
-31 -55 -57 -62 -57 -6 -1 -23 13 -37 30 -39 46 -34 88 20 205 26 54 49 116
52 136 4 34 6 36 26 26 11 -6 57 -39 101 -73z m178 -21 c25 -8 51 -22 57 -29
10 -12 5 -16 -29 -21 -51 -8 -45 -10 -86 31 -34 33 -35 35 -12 35 13 0 44 -7
70 -16z m234 -41 c-3 -10 -5 -2 -5 17 0 19 2 27 5 18 2 -10 2 -26 0 -35z m-10
-90 c-2 -16 -4 -5 -4 22 0 28 2 40 4 28 2 -13 2 -35 0 -50z m-804 30 c7 -6
-65 -91 -90 -106 -7 -4 5 19 28 53 39 58 49 67 62 53z m1201 -138 c34 -71 65
-198 76 -315 11 -121 -1 -267 -35 -427 -26 -118 -90 -277 -108 -266 -17 10 0
299 25 421 29 140 28 331 -1 530 -12 78 -21 146 -21 150 1 14 40 -44 64 -93z
m-1127 46 l32 -38 -37 -35 c-104 -97 -172 -145 -289 -205 -57 -29 -69 -45 -49
-66 19 -19 1 -33 -174 -133 -55 -32 -76 -38 -138 -42 l-72 -4 -40 40 c-37 36
-40 44 -40 94 0 42 6 64 28 99 36 56 48 65 102 79 77 20 141 -20 119 -75 -6
-16 -8 -17 -8 -3 -1 22 -48 58 -75 58 -28 0 -82 -34 -96 -61 -19 -35 -15 -89
9 -113 18 -17 32 -21 86 -19 53 1 76 7 124 35 65 36 230 180 381 332 52 53 97
96 100 96 3 0 19 -18 37 -39z m-14 -214 c-162 -80 -254 -111 -170 -59 64 41
123 86 181 139 l60 53 33 -32 34 -33 -138 -68z m1429 -140 c131 -130 217 -267
274 -435 57 -171 67 -245 62 -443 -4 -134 -10 -181 -31 -259 -66 -246 -188
-443 -345 -556 -73 -53 -103 -66 -225 -100 -114 -32 -320 -42 -477 -24 -58 6
-168 14 -245 17 -126 4 -146 3 -196 -16 -62 -24 -132 -78 -154 -122 -8 -15
-15 -48 -15 -73 0 -37 5 -48 31 -70 17 -15 51 -32 75 -38 24 -7 44 -15 44 -19
0 -4 -14 -17 -30 -29 -79 -56 -186 -20 -249 84 -32 53 -36 66 -36 130 0 166
130 295 360 356 l70 18 40 -38 c82 -79 241 -130 406 -130 376 0 698 244 794
601 78 290 48 581 -91 876 -48 104 -151 257 -199 298 -18 15 -32 46 -39 88
l-7 39 45 -31 c24 -17 87 -73 138 -124z m-353 -38 c1 -63 -8 -147 -26 -245
-41 -230 -37 -475 12 -714 3 -14 -14 15 -38 63 -69 138 -92 255 -91 457 0 147
3 176 28 269 15 58 33 119 40 135 7 17 23 71 37 120 24 87 24 88 31 50 4 -22
7 -82 7 -135z m-1669 71 c6 -22 16 -40 22 -40 21 0 -1 -12 -38 -20 -48 -11
-84 3 -84 32 0 29 38 68 66 68 19 0 25 -8 34 -40z m1993 -233 c62 -104 127
-272 154 -398 25 -116 25 -385 -1 -479 -38 -144 -83 -242 -150 -328 -77 -100
-193 -188 -315 -238 -73 -29 -82 -26 -114 46 -30 69 -67 163 -64 165 1 0 27 9
57 19 113 38 189 86 281 179 75 75 97 104 134 181 60 124 78 205 72 331 -3 78
-11 121 -36 195 -36 106 -79 196 -122 254 -28 38 -29 45 -29 145 l1 106 39
-43 c21 -24 63 -85 93 -135z m-33 -318 c78 -257 41 -462 -116 -653 -81 -98
-295 -223 -349 -203 -8 4 -16 30 -20 70 l-7 65 38 36 c22 19 42 36 45 36 4 0
21 23 39 50 18 28 35 50 39 50 3 -1 18 -18 32 -39 21 -29 99 -91 99 -77 0 1
-9 29 -21 62 -29 84 -59 221 -59 275 0 36 10 66 44 130 47 89 97 240 117 352
l13 68 43 -78 c24 -43 52 -108 63 -144z m-460 -233 c0 -8 11 -47 25 -87 l24
-73 -29 -46 c-103 -161 -119 -307 -56 -515 l25 -80 -40 45 c-51 58 -95 150
-115 239 -13 58 -14 82 -5 134 16 93 64 229 99 283 17 25 36 61 42 80 12 34
30 46 30 20z m72 -309 c-15 -26 -42 -62 -61 -80 l-34 -32 7 35 c3 19 25 66 48
104 40 68 41 69 54 45 11 -21 9 -30 -14 -72z m-273 -277 c7 -22 7 -30 -1 -30
-13 0 -98 48 -98 55 0 3 20 5 44 5 40 0 45 -3 55 -30z m-346 -101 c41 -30 150
-59 219 -59 24 0 74 7 113 15 l70 15 24 -33 c38 -49 132 -137 166 -154 l30
-16 -25 -9 c-14 -6 -74 -12 -135 -15 -128 -6 -270 20 -339 61 -78 47 -144 126
-175 209 -12 32 -11 31 52 -14z"/>
<path d="M1471 2374 c-31 -17 -60 -24 -96 -24 -55 0 -115 16 -115 31 0 5 -6 9
-13 9 -16 0 -57 -53 -57 -75 0 -19 24 -20 40 0 20 24 38 18 32 -10 -3 -20 0
-25 16 -25 12 0 23 9 27 21 9 29 30 18 30 -17 1 -41 31 -45 40 -5 8 38 33 41
37 4 2 -17 10 -29 21 -31 13 -3 17 4 17 32 0 41 15 55 30 26 14 -25 50 -27 50
-2 0 10 -6 24 -12 31 -11 11 -8 12 17 6 79 -21 99 -2 34 33 -23 12 -45 22 -48
21 -3 0 -26 -11 -50 -25z"/>
<path d="M673 1943 c-36 -48 -41 -52 -67 -45 -19 5 -19 4 -7 -11 15 -19 53
-22 82 -7 38 21 62 100 30 100 -6 0 -23 -17 -38 -37z"/>
</g>
</svg>
